<svg xmlns="http://www.w3.org/2000/svg" viewBox="0 0 100 100" role="img" aria-label="Cockatoo compact bust mark">
  <g fill="#F5C52B">
    <path d="M38 20 C49 20 54 27 54 36 C54 45 48 50 38 50 C42 42 43 29 38 20 Z"/>
    <path d="M51 22 C37 19 22 12 12 3 C10 12 19 24 38 31 C44 32 49 28 51 22 Z"/>
    <path d="M47 29 C31 29 17 24 6 16 C8 28 20 37 39 39 C44 38 47 34 47 29 Z"/>
    <path d="M42 37 C28 40 16 38 7 32 C12 44 25 49 40 46 C43 43 44 40 42 37 Z"/>
  </g>
  <path fill="#F2F0E8" d="M29 92 C34 78 36 62 36 45 C36 29 43 18 55 14 C69 10 80 18 83 31 C85 38 84 43 80 48 C76 53 73 59 73 65 C72 73 75 84 79 92 C65 98 43 98 29 92 Z"/>
  <path fill="#18181A" stroke="#F2F0E8" stroke-width="1.8" stroke-linejoin="round" d="M78 40 C84 36 91 39 93 46 C95 53 91 61 84 69 C85 64 82 59 78 58 C74 59 71 56 72 51 C72 46 75 42 78 40 Z"/>
  <circle cx="69" cy="36" r="3" fill="#18181A"/>
</svg>
